<svg width="375" height="225" viewBox="0 0 375 225" fill="none" xmlns="http://www.w3.org/2000/svg">
    <rect opacity="0.45" width="375" height="225" fill="#AAD8D2"/>
    <mask id="mask0_997_12215" style="mask-type:alpha" maskUnits="userSpaceOnUse" x="0" y="0" width="375" height="225">
        <rect opacity="0.45" width="375" height="225" fill="#AAD8D2"/>
    </mask>
    <g mask="url(#mask0_997_12215)">
        <g opacity="0.35">
            <path opacity="0.6" d="M-49 171.992L-1.53536 191.667L45.913 171.992L-1.53536 152.333L-49 171.992Z" fill="#40A799"/>
            <path opacity="0.6" d="M45.9131 171.992L93.3777 191.667L140.826 171.992L93.3777 152.333L45.9131 171.992Z" fill="#40A799"/>
            <path opacity="0.6" d="M140.826 171.992L188.291 191.667L235.739 171.992L188.291 152.333L140.826 171.992Z" fill="#40A799"/>
            <path opacity="0.6" d="M235.739 171.992L283.204 191.667L330.652 171.992L283.204 152.333L235.739 171.992Z" fill="#40A799"/>
            <path opacity="0.6" d="M330.652 171.992L378.117 191.667L425.565 171.992L378.117 152.333L330.652 171.992Z" fill="#40A799"/>
            <path opacity="0.6" d="M-49 93.3252L-1.53536 113L45.913 93.3252L-1.53536 73.6666L-49 93.3252Z" fill="#40A799"/>
            <path opacity="0.6" d="M45.9131 93.3252L93.3777 113L140.826 93.3252L93.3777 73.6666L45.9131 93.3252Z" fill="#40A799"/>
            <path opacity="0.6" d="M140.826 93.3252L188.291 113L235.739 93.3252L188.291 73.6666L140.826 93.3252Z" fill="#40A799"/>
            <path opacity="0.6" d="M235.739 93.3252L283.204 113L330.652 93.3252L283.204 73.6666L235.739 93.3252Z" fill="#40A799"/>
            <path opacity="0.6" d="M330.652 93.3252L378.117 113L425.565 93.3252L378.117 73.6666L330.652 93.3252Z" fill="#40A799"/>
            <path opacity="0.6" d="M-49 14.6585L-1.53536 34.3333L45.913 14.6585L-1.53536 -5L-49 14.6585Z" fill="#40A799"/>
            <path opacity="0.6" d="M45.9131 14.6585L93.3777 34.3333L140.826 14.6585L93.3777 -5L45.9131 14.6585Z" fill="#40A799"/>
            <path opacity="0.6" d="M140.826 14.6585L188.291 34.3333L235.739 14.6585L188.291 -5L140.826 14.6585Z" fill="#40A799"/>
            <path opacity="0.6" d="M235.739 14.6585L283.204 34.3333L330.652 14.6585L283.204 -5L235.739 14.6585Z" fill="#40A799"/>
            <path opacity="0.6" d="M330.652 14.6585L378.117 34.3333L425.565 14.6585L378.117 -5L330.652 14.6585Z" fill="#40A799"/>
            <path opacity="0.6" d="M-1.97119 211.659L45.4934 231.333L92.9419 211.659L45.4934 192L-1.97119 211.659Z" fill="#40A799"/>
            <path opacity="0.6" d="M92.9419 211.659L140.407 231.333L187.855 211.659L140.407 192L92.9419 211.659Z" fill="#40A799"/>
            <path opacity="0.6" d="M187.855 211.659L235.32 231.333L282.768 211.659L235.32 192L187.855 211.659Z" fill="#40A799"/>
            <path opacity="0.6" d="M282.768 211.659L330.233 231.333L377.681 211.659L330.233 192L282.768 211.659Z" fill="#40A799"/>
            <path opacity="0.6" d="M-1.97119 132.659L45.4934 152.333L92.9419 132.659L45.4934 113L-1.97119 132.659Z" fill="#40A799"/>
            <path opacity="0.6" d="M92.9419 132.659L140.407 152.333L187.855 132.659L140.407 113L92.9419 132.659Z" fill="#40A799"/>
            <path opacity="0.6" d="M187.855 132.659L235.32 152.333L282.768 132.659L235.32 113L187.855 132.659Z" fill="#40A799"/>
            <path opacity="0.6" d="M282.768 132.659L330.233 152.333L377.681 132.659L330.233 113L282.768 132.659Z" fill="#40A799"/>
            <path opacity="0.6" d="M-1.97119 53.9919L45.4934 73.6667L92.9419 53.9919L45.4934 34.3334L-1.97119 53.9919Z" fill="#40A799"/>
            <path opacity="0.6" d="M92.9419 53.9919L140.407 73.6667L187.855 53.9919L140.407 34.3334L92.9419 53.9919Z" fill="#40A799"/>
            <path opacity="0.6" d="M187.855 53.9919L235.32 73.6667L282.768 53.9919L235.32 34.3334L187.855 53.9919Z" fill="#40A799"/>
            <path opacity="0.6" d="M282.768 53.9919L330.233 73.6667L377.681 53.9919L330.233 34.3334L282.768 53.9919Z" fill="#40A799"/>
        </g>
    </g>
</svg>
