<svg width="217" height="93" viewBox="0 0 217 93" fill="none" xmlns="http://www.w3.org/2000/svg">
    <path d="M15.8928 50.6611C14.4821 50.6265 13.0791 50.8785 11.768 51.4022C10.4569 51.9258 9.26484 52.7101 8.26348 53.7081L2.36482 47.4232C5.50896 44.3398 9.05178 41.8841 16.9167 41.8841C25.4974 41.8841 32.0212 46.55 32.0212 57.1279V76.2282H21.4834L21.7189 71.5622C19.2 75.4369 16.2824 76.9376 11.8063 76.9376C5.66299 76.9376 0.0270996 74.209 0.0270996 66.3506C0.0270996 59.1653 5.46365 56.2457 13.7182 56.2457H21.5105C21.3203 52.3983 19.4356 50.6611 15.8928 50.6611ZM14.2437 62.5851C11.5707 62.5851 10.3837 63.7766 10.3837 65.6685C10.3837 67.5603 11.9603 68.6699 14.9142 68.6699C19.2453 68.6699 21.4471 66.7781 21.4471 63.9312V62.5851H14.2437Z" fill="white"/>
    <path d="M40.1128 42.6027H50.7503L50.5147 47.8234C52.8706 43.7032 56.0238 41.8841 60.0468 41.8841C62.0155 41.7822 63.9691 42.2777 65.6532 43.3063C67.3372 44.3348 68.6736 45.8487 69.4883 47.6506C70.8015 45.8561 72.5184 44.3984 74.4993 43.3963C76.4801 42.3943 78.6688 41.8761 80.8869 41.8841C89.3045 41.8841 94.1793 47.496 94.1793 56.7368V76.2555H83.6052V57.6918C83.6052 53.7445 82.3457 51.6071 78.3317 51.6071C74.3178 51.6071 72.4693 53.7081 72.4693 58.2558V76.2646H61.9224V57.6918C61.9224 53.7445 60.7445 51.6071 56.7305 51.6071C52.7165 51.6071 50.7503 53.7081 50.7503 58.2558V76.2646H40.1128V42.6027Z" fill="white"/>
    <path d="M102.28 42.6026H112.908L112.663 47.8234C114.711 44.1852 118.254 41.8932 123.446 41.8932C131.555 41.8932 138.396 49.0058 138.396 59.3472C138.396 69.6886 131.392 76.9649 123.21 76.9649C118.1 76.9649 114.639 74.8275 112.908 71.7532V93H102.28V42.6026ZM127.46 59.3472C127.46 54.372 124.624 51.2978 120.139 51.2978C115.653 51.2978 112.6 54.372 112.6 59.3472C112.6 64.6407 115.59 67.6421 120.148 67.6421C124.705 67.6421 127.46 64.6225 127.46 59.3472Z" fill="white"/>
    <path d="M196.305 17.2084L175.61 25.8126L196.305 34.4168L217 25.8126L196.305 17.2084Z" fill="white"/>
    <path d="M165.271 4.3021L154.924 0V17.2084L165.271 21.5105L175.61 25.8126L196.305 17.2084L175.61 8.6042L165.271 4.3021Z" fill="#2C9D8E"/>
    <path d="M196.305 34.4168L175.619 25.8126L165.271 30.1147L154.924 34.4168V51.6252L165.271 47.3413L175.619 43.0392L196.305 34.4168Z" fill="#F57F33"/>
</svg>
