<svg width="85" height="85" viewBox="0 0 85 85" fill="none" xmlns="http://www.w3.org/2000/svg">
    <path d="M42.5 85C65.9721 85 85 65.9721 85 42.5C85 19.0279 65.9721 0 42.5 0C19.0279 0 0 19.0279 0 42.5C0 65.9721 19.0279 85 42.5 85Z" fill="url(#paint0_linear_1274_11557)"/>
    <path d="M65 17.9302H21C19.3431 17.9302 18 19.2733 18 20.9302V66.2502C18 67.907 19.3431 69.2502 21 69.2502H65C66.6569 69.2502 68 67.907 68 66.2502V20.9302C68 19.2733 66.6569 17.9302 65 17.9302Z" fill="white"/>
    <path d="M21 17.9302H65C65.7956 17.9302 66.5587 18.2462 67.1213 18.8089C67.6839 19.3715 68 20.1345 68 20.9302V28.1902H18V20.9302C18 20.1345 18.3161 19.3715 18.8787 18.8089C19.4413 18.2462 20.2044 17.9302 21 17.9302Z" fill="url(#paint1_linear_1274_11557)"/>
    <path d="M68 28.2002H18V29.2002H68V28.2002Z" fill="#18665E"/>
    <path d="M28 23.1499C29.1046 23.1499 30 22.2545 30 21.1499C30 20.0453 29.1046 19.1499 28 19.1499C26.8954 19.1499 26 20.0453 26 21.1499C26 22.2545 26.8954 23.1499 28 23.1499Z" fill="#18665E"/>
    <path d="M29.5 16.1602C29.5 15.3317 28.8284 14.6602 28 14.6602C27.1716 14.6602 26.5 15.3317 26.5 16.1602V21.1602C26.5 21.9886 27.1716 22.6602 28 22.6602C28.8284 22.6602 29.5 21.9886 29.5 21.1602V16.1602Z" fill="url(#paint2_linear_1274_11557)"/>
    <path opacity="0.6" d="M28 17.1499C28.5523 17.1499 29 16.7022 29 16.1499C29 15.5976 28.5523 15.1499 28 15.1499C27.4477 15.1499 27 15.5976 27 16.1499C27 16.7022 27.4477 17.1499 28 17.1499Z" fill="url(#paint3_linear_1274_11557)"/>
    <path d="M58 23.1499C59.1046 23.1499 60 22.2545 60 21.1499C60 20.0453 59.1046 19.1499 58 19.1499C56.8954 19.1499 56 20.0453 56 21.1499C56 22.2545 56.8954 23.1499 58 23.1499Z" fill="#18665E"/>
    <path d="M59.5 16.1602C59.5 15.3317 58.8284 14.6602 58 14.6602C57.1716 14.6602 56.5 15.3317 56.5 16.1602V21.1602C56.5 21.9886 57.1716 22.6602 58 22.6602C58.8284 22.6602 59.5 21.9886 59.5 21.1602V16.1602Z" fill="url(#paint4_linear_1274_11557)"/>
    <path opacity="0.6" d="M58 17.1499C58.5523 17.1499 59 16.7022 59 16.1499C59 15.5976 58.5523 15.1499 58 15.1499C57.4477 15.1499 57 15.5976 57 16.1499C57 16.7022 57.4477 17.1499 58 17.1499Z" fill="url(#paint5_linear_1274_11557)"/>
    <path d="M26.77 32.1299H21.77C21.2177 32.1299 20.77 32.5776 20.77 33.1299V38.1299C20.77 38.6822 21.2177 39.1299 21.77 39.1299H26.77C27.3223 39.1299 27.77 38.6822 27.77 38.1299V33.1299C27.77 32.5776 27.3223 32.1299 26.77 32.1299Z" fill="#EAEAEA"/>
    <path d="M36.1401 32.1299H31.1401C30.5879 32.1299 30.1401 32.5776 30.1401 33.1299V38.1299C30.1401 38.6822 30.5879 39.1299 31.1401 39.1299H36.1401C36.6924 39.1299 37.1401 38.6822 37.1401 38.1299V33.1299C37.1401 32.5776 36.6924 32.1299 36.1401 32.1299Z" fill="#EAEAEA"/>
    <path d="M45.5 32.1299H40.5C39.9477 32.1299 39.5 32.5776 39.5 33.1299V38.1299C39.5 38.6822 39.9477 39.1299 40.5 39.1299H45.5C46.0523 39.1299 46.5 38.6822 46.5 38.1299V33.1299C46.5 32.5776 46.0523 32.1299 45.5 32.1299Z" fill="#EAEAEA"/>
    <path d="M54.8599 32.1299H49.8599C49.3076 32.1299 48.8599 32.5776 48.8599 33.1299V38.1299C48.8599 38.6822 49.3076 39.1299 49.8599 39.1299H54.8599C55.4121 39.1299 55.8599 38.6822 55.8599 38.1299V33.1299C55.8599 32.5776 55.4121 32.1299 54.8599 32.1299Z" fill="#009FC2"/>
    <path d="M64.23 32.1299H59.23C58.6777 32.1299 58.23 32.5776 58.23 33.1299V38.1299C58.23 38.6822 58.6777 39.1299 59.23 39.1299H64.23C64.7823 39.1299 65.23 38.6822 65.23 38.1299V33.1299C65.23 32.5776 64.7823 32.1299 64.23 32.1299Z" fill="#EAEAEA"/>
    <path d="M26.77 41.4399H21.77C21.2177 41.4399 20.77 41.8877 20.77 42.4399V47.4399C20.77 47.9922 21.2177 48.4399 21.77 48.4399H26.77C27.3223 48.4399 27.77 47.9922 27.77 47.4399V42.4399C27.77 41.8877 27.3223 41.4399 26.77 41.4399Z" fill="#EAEAEA"/>
    <path d="M36.1401 41.4399H31.1401C30.5879 41.4399 30.1401 41.8877 30.1401 42.4399V47.4399C30.1401 47.9922 30.5879 48.4399 31.1401 48.4399H36.1401C36.6924 48.4399 37.1401 47.9922 37.1401 47.4399V42.4399C37.1401 41.8877 36.6924 41.4399 36.1401 41.4399Z" fill="#EAEAEA"/>
    <path d="M45.5 41.4399H40.5C39.9477 41.4399 39.5 41.8877 39.5 42.4399V47.4399C39.5 47.9922 39.9477 48.4399 40.5 48.4399H45.5C46.0523 48.4399 46.5 47.9922 46.5 47.4399V42.4399C46.5 41.8877 46.0523 41.4399 45.5 41.4399Z" fill="#EAEAEA"/>
    <path d="M54.8599 41.4399H49.8599C49.3076 41.4399 48.8599 41.8877 48.8599 42.4399V47.4399C48.8599 47.9922 49.3076 48.4399 49.8599 48.4399H54.8599C55.4121 48.4399 55.8599 47.9922 55.8599 47.4399V42.4399C55.8599 41.8877 55.4121 41.4399 54.8599 41.4399Z" fill="#EAEAEA"/>
    <path d="M64.23 41.4399H59.23C58.6777 41.4399 58.23 41.8877 58.23 42.4399V47.4399C58.23 47.9922 58.6777 48.4399 59.23 48.4399H64.23C64.7823 48.4399 65.23 47.9922 65.23 47.4399V42.4399C65.23 41.8877 64.7823 41.4399 64.23 41.4399Z" fill="#EAEAEA"/>
    <path d="M26.77 50.7402H21.77C21.2177 50.7402 20.77 51.1879 20.77 51.7402V56.7402C20.77 57.2925 21.2177 57.7402 21.77 57.7402H26.77C27.3223 57.7402 27.77 57.2925 27.77 56.7402V51.7402C27.77 51.1879 27.3223 50.7402 26.77 50.7402Z" fill="#009FC2"/>
    <path d="M36.1401 50.7402H31.1401C30.5879 50.7402 30.1401 51.1879 30.1401 51.7402V56.7402C30.1401 57.2925 30.5879 57.7402 31.1401 57.7402H36.1401C36.6924 57.7402 37.1401 57.2925 37.1401 56.7402V51.7402C37.1401 51.1879 36.6924 50.7402 36.1401 50.7402Z" fill="#EAEAEA"/>
    <path d="M45.5 50.7402H40.5C39.9477 50.7402 39.5 51.1879 39.5 51.7402V56.7402C39.5 57.2925 39.9477 57.7402 40.5 57.7402H45.5C46.0523 57.7402 46.5 57.2925 46.5 56.7402V51.7402C46.5 51.1879 46.0523 50.7402 45.5 50.7402Z" fill="#EAEAEA"/>
    <path d="M54.8599 50.7402H49.8599C49.3076 50.7402 48.8599 51.1879 48.8599 51.7402V56.7402C48.8599 57.2925 49.3076 57.7402 49.8599 57.7402H54.8599C55.4121 57.7402 55.8599 57.2925 55.8599 56.7402V51.7402C55.8599 51.1879 55.4121 50.7402 54.8599 50.7402Z" fill="#EAEAEA"/>
    <path d="M64.23 50.7402H59.23C58.6777 50.7402 58.23 51.1879 58.23 51.7402V56.7402C58.23 57.2925 58.6777 57.7402 59.23 57.7402H64.23C64.7823 57.7402 65.23 57.2925 65.23 56.7402V51.7402C65.23 51.1879 64.7823 50.7402 64.23 50.7402Z" fill="#EAEAEA"/>
    <path d="M26.77 60.0498H21.77C21.2177 60.0498 20.77 60.4975 20.77 61.0498V66.0498C20.77 66.6021 21.2177 67.0498 21.77 67.0498H26.77C27.3223 67.0498 27.77 66.6021 27.77 66.0498V61.0498C27.77 60.4975 27.3223 60.0498 26.77 60.0498Z" fill="#EAEAEA"/>
    <path d="M36.1401 60.0498H31.1401C30.5879 60.0498 30.1401 60.4975 30.1401 61.0498V66.0498C30.1401 66.6021 30.5879 67.0498 31.1401 67.0498H36.1401C36.6924 67.0498 37.1401 66.6021 37.1401 66.0498V61.0498C37.1401 60.4975 36.6924 60.0498 36.1401 60.0498Z" fill="#EAEAEA"/>
    <path d="M45.5 60.0498H40.5C39.9477 60.0498 39.5 60.4975 39.5 61.0498V66.0498C39.5 66.6021 39.9477 67.0498 40.5 67.0498H45.5C46.0523 67.0498 46.5 66.6021 46.5 66.0498V61.0498C46.5 60.4975 46.0523 60.0498 45.5 60.0498Z" fill="#009FC2"/>
    <path d="M54.8599 60.0498H49.8599C49.3076 60.0498 48.8599 60.4975 48.8599 61.0498V66.0498C48.8599 66.6021 49.3076 67.0498 49.8599 67.0498H54.8599C55.4121 67.0498 55.8599 66.6021 55.8599 66.0498V61.0498C55.8599 60.4975 55.4121 60.0498 54.8599 60.0498Z" fill="#EAEAEA"/>
    <path d="M64.23 60.0498H59.23C58.6777 60.0498 58.23 60.4975 58.23 61.0498V66.0498C58.23 66.6021 58.6777 67.0498 59.23 67.0498H64.23C64.7823 67.0498 65.23 66.6021 65.23 66.0498V61.0498C65.23 60.4975 64.7823 60.0498 64.23 60.0498Z" fill="#EAEAEA"/>
    <defs>
        <linearGradient id="paint0_linear_1274_11557" x1="42.5" y1="0" x2="42.5" y2="85" gradientUnits="userSpaceOnUse">
            <stop stop-color="#FEB282"/>
            <stop offset="1" stop-color="#FC873E"/>
        </linearGradient>
        <linearGradient id="paint1_linear_1274_11557" x1="43" y1="17.9302" x2="43" y2="28.1902" gradientUnits="userSpaceOnUse">
            <stop stop-color="#55B1A5"/>
            <stop offset="0.77" stop-color="#2B8E8E"/>
        </linearGradient>
        <linearGradient id="paint2_linear_1274_11557" x1="28" y1="14.6602" x2="28" y2="22.6602" gradientUnits="userSpaceOnUse">
            <stop stop-color="#C4C4C4"/>
            <stop offset="1" stop-color="#858585"/>
        </linearGradient>
        <linearGradient id="paint3_linear_1274_11557" x1="28" y1="15.1499" x2="28" y2="17.1499" gradientUnits="userSpaceOnUse">
            <stop stop-color="white"/>
            <stop offset="0.03" stop-color="white" stop-opacity="0.95"/>
            <stop offset="0.19" stop-color="white" stop-opacity="0.7"/>
            <stop offset="0.35" stop-color="white" stop-opacity="0.49"/>
            <stop offset="0.5" stop-color="white" stop-opacity="0.31"/>
            <stop offset="0.64" stop-color="white" stop-opacity="0.18"/>
            <stop offset="0.78" stop-color="white" stop-opacity="0.08"/>
            <stop offset="0.9" stop-color="white" stop-opacity="0.02"/>
            <stop offset="1" stop-color="white" stop-opacity="0"/>
        </linearGradient>
        <linearGradient id="paint4_linear_1274_11557" x1="58" y1="14.6602" x2="58" y2="22.6602" gradientUnits="userSpaceOnUse">
            <stop stop-color="#C4C4C4"/>
            <stop offset="1" stop-color="#858585"/>
        </linearGradient>
        <linearGradient id="paint5_linear_1274_11557" x1="58" y1="15.1499" x2="58" y2="17.1499" gradientUnits="userSpaceOnUse">
            <stop stop-color="white"/>
            <stop offset="0.03" stop-color="white" stop-opacity="0.95"/>
            <stop offset="0.19" stop-color="white" stop-opacity="0.7"/>
            <stop offset="0.35" stop-color="white" stop-opacity="0.49"/>
            <stop offset="0.5" stop-color="white" stop-opacity="0.31"/>
            <stop offset="0.64" stop-color="white" stop-opacity="0.18"/>
            <stop offset="0.78" stop-color="white" stop-opacity="0.08"/>
            <stop offset="0.9" stop-color="white" stop-opacity="0.02"/>
            <stop offset="1" stop-color="white" stop-opacity="0"/>
        </linearGradient>
    </defs>
</svg>
