<svg width="21" height="23" viewBox="0 0 21 23" xmlns="http://www.w3.org/2000/svg">
    <path d="M0 17.0049C0 17.7891 0.601562 18.3047 1.62207 18.3047H6.15527C6.24121 20.3779 7.86328 22.1934 10.1299 22.1934C12.4072 22.1934 14.0293 20.3887 14.1152 18.3047H18.6484C19.6582 18.3047 20.2705 17.7891 20.2705 17.0049C20.2705 15.9307 19.1748 14.9639 18.251 14.0078C17.542 13.2666 17.3486 11.7412 17.2627 10.5059C17.1875 6.27344 16.0918 3.54492 13.2344 2.51367C12.8691 1.10645 11.7197 0 10.1299 0C8.55078 0 7.39062 1.10645 7.03613 2.51367C4.17871 3.54492 3.08301 6.27344 3.00781 10.5059C2.92188 11.7412 2.72852 13.2666 2.01953 14.0078C1.08496 14.9639 0 15.9307 0 17.0049ZM2.08398 16.6826V16.5537C2.27734 16.2422 2.92188 15.6084 3.48047 14.9854C4.25391 14.126 4.61914 12.7402 4.71582 10.6455C4.80176 5.95117 6.19824 4.45801 8.03516 3.95312C8.30371 3.88867 8.4541 3.75977 8.46484 3.48047C8.49707 2.36328 9.1416 1.5791 10.1299 1.5791C11.1289 1.5791 11.7627 2.36328 11.8057 3.48047C11.8164 3.75977 11.9561 3.88867 12.2246 3.95312C14.0723 4.45801 15.4688 5.95117 15.5547 10.6455C15.6514 12.7402 16.0166 14.126 16.7793 14.9854C17.3486 15.6084 17.9824 16.2422 18.1758 16.5537V16.6826H2.08398ZM7.83105 18.3047H12.4395C12.3535 19.7656 11.4297 20.6787 10.1299 20.6787C8.84082 20.6787 7.90625 19.7656 7.83105 18.3047Z"/>
</svg>
