<svg width="26" height="22" viewBox="0 0 26 22"  xmlns="http://www.w3.org/2000/svg">
    <path d="M0.332031 19.438C0.332031 20.46 1.00586 20.9204 1.80322 20.9204C2.22998 20.9204 2.57812 20.707 3.07227 20.4038C4.30762 19.584 5.75635 19.1011 7.25 19.1123C8.82227 19.1235 10.3608 19.6963 11.585 20.853C12.1128 21.3472 12.5283 21.5269 13 21.5269C13.4717 21.5269 13.8984 21.3472 14.415 20.853C15.6392 19.7075 17.1777 19.1235 18.75 19.1123C20.2437 19.1011 21.6924 19.584 22.9277 20.4038C23.4219 20.707 23.77 20.9204 24.1968 20.9204C24.9941 20.9204 25.668 20.46 25.668 19.438V4.19824C25.668 3.97363 25.6343 3.78271 25.5107 3.56934C24.4551 1.73877 21.8384 0.256348 18.7051 0.256348C16.313 0.256348 14.1904 1.17725 13 2.51367C11.8096 1.17725 9.68701 0.256348 7.29492 0.256348C4.16162 0.256348 1.54492 1.73877 0.489258 3.56934C0.365723 3.78271 0.332031 3.97363 0.332031 4.19824V19.438ZM2.5332 18.2026V4.52393C3.42041 3.27734 5.31836 2.45752 7.29492 2.45752C9.33887 2.45752 11.1245 3.28857 11.8994 4.58008V18.3599C10.7651 17.5176 9.05811 16.9111 7.29492 16.9111C5.45312 16.9111 3.7124 17.4053 2.5332 18.2026ZM14.1006 18.3599V4.58008C14.8755 3.28857 16.6724 2.45752 18.7051 2.45752C20.6816 2.45752 22.5796 3.27734 23.4668 4.52393V18.2026C22.2876 17.4053 20.5469 16.9111 18.7051 16.9111C16.9419 16.9111 15.2349 17.5176 14.1006 18.3599Z" />
</svg>