<svg width="41" height="40" viewBox="0 0 41 40" fill="none" xmlns="http://www.w3.org/2000/svg">
    <circle cx="18.5" cy="21.5" r="18.5" fill="#516B75"/>
    <circle cx="18.5" cy="21.5" r="12.5" fill="#B3CD9B"/>
    <circle cx="18.5" cy="21.5" r="6.5" fill="#80C4BB"/>
    <path d="M17.7071 22.3209C17.3166 21.9304 17.3166 21.2972 17.7071 20.9067L31.8492 6.76459C32.2398 6.37406 32.8729 6.37406 33.2635 6.76459V6.76459C33.654 7.15511 33.654 7.78828 33.2635 8.1788L19.1213 22.3209C18.7308 22.7115 18.0976 22.7115 17.7071 22.3209V22.3209Z" fill="#264653"/>
    <mask id="path-5-inside-1_815_8033" fill="white">
        <path fill-rule="evenodd" clip-rule="evenodd" d="M31.8492 3.93617L35.4312 0.354155C35.7136 0.0717732 36.1968 0.218057 36.2751 0.60965L36.7336 2.90221C36.7732 3.10014 36.9279 3.25485 37.1258 3.29444L39.4184 3.75295C39.81 3.83127 39.9563 4.31441 39.6739 4.5968L36.0919 8.17882L35.9391 8.33163C35.9363 8.33438 35.9325 8.33582 35.9286 8.33559V8.33559C35.9251 8.33538 35.9216 8.33657 35.9189 8.33887C34.7403 9.34771 32.9648 9.29436 31.8492 8.17882C30.7337 7.06327 30.6803 5.28777 31.6892 4.1091C31.6915 4.10642 31.6927 4.10293 31.6924 4.09941V4.09941C31.6922 4.09553 31.6937 4.09174 31.6964 4.08899L31.8492 3.93617Z"/>
    </mask>
    <path fill-rule="evenodd" clip-rule="evenodd" d="M31.8492 3.93617L35.4312 0.354155C35.7136 0.0717732 36.1968 0.218057 36.2751 0.60965L36.7336 2.90221C36.7732 3.10014 36.9279 3.25485 37.1258 3.29444L39.4184 3.75295C39.81 3.83127 39.9563 4.31441 39.6739 4.5968L36.0919 8.17882L35.9391 8.33163C35.9363 8.33438 35.9325 8.33582 35.9286 8.33559V8.33559C35.9251 8.33538 35.9216 8.33657 35.9189 8.33887C34.7403 9.34771 32.9648 9.29436 31.8492 8.17882C30.7337 7.06327 30.6803 5.28777 31.6892 4.1091C31.6915 4.10642 31.6927 4.10293 31.6924 4.09941V4.09941C31.6922 4.09553 31.6937 4.09174 31.6964 4.08899L31.8492 3.93617Z" fill="#FE9959"/>
    <path d="M31.8492 3.93617L33.2634 5.35039L31.8492 3.93617ZM36.0919 8.17882L37.5061 9.59303L36.0919 8.17882ZM31.6892 4.1091L30.1697 2.80859L31.6892 4.1091ZM31.6924 4.09941L33.689 3.98197L31.6924 4.09941ZM35.9391 8.33163L34.5248 6.91742L35.9391 8.33163ZM39.4184 3.75295L39.8106 1.79179L39.4184 3.75295ZM36.7336 2.90221L38.6948 2.50998L36.7336 2.90221ZM37.1258 3.29444L37.5181 1.33328L37.1258 3.29444ZM35.9286 8.33559L35.8112 10.3321L35.9286 8.33559ZM35.9189 8.33887L37.2194 9.8583L35.9189 8.33887ZM33.2634 5.35039L36.8455 1.76837L34.017 -1.06006L30.435 2.52196L33.2634 5.35039ZM34.3139 1.00188L34.7724 3.29444L38.6948 2.50998L38.2363 0.217418L34.3139 1.00188ZM36.7336 5.2556L39.0262 5.71411L39.8106 1.79179L37.5181 1.33328L36.7336 5.2556ZM38.2597 3.18258L34.6777 6.7646L37.5061 9.59303L41.0881 6.01101L38.2597 3.18258ZM34.6777 6.7646L34.5248 6.91742L37.3533 9.74584L37.5061 9.59303L34.6777 6.7646ZM34.6184 6.81943C34.2271 7.15438 33.6346 7.13579 33.2634 6.7646L30.435 9.59303C32.2949 11.4529 35.2534 11.541 37.2194 9.8583L34.6184 6.81943ZM33.2634 6.7646C32.8923 6.39342 32.8737 5.80094 33.2086 5.40961L30.1697 2.80859C28.487 4.7746 28.5751 7.73313 30.435 9.59303L33.2634 6.7646ZM33.1106 5.5032L33.2634 5.35039L30.435 2.52196L30.2822 2.67477L33.1106 5.5032ZM33.689 3.98197C33.7223 4.54838 33.5118 5.102 33.1106 5.5032L30.2822 2.67477C29.8755 3.08148 29.6621 3.64268 29.6959 4.21685L33.689 3.98197ZM33.2086 5.40961C33.5436 5.01819 33.7199 4.50781 33.689 3.98197L29.6959 4.21685C29.6654 3.69805 29.8393 3.19464 30.1697 2.80859L33.2086 5.40961ZM34.5248 6.91742C34.926 6.51621 35.4797 6.30572 36.0461 6.33904L35.8112 10.3321C36.3853 10.3659 36.9466 10.1525 37.3533 9.74584L34.5248 6.91742ZM39.0262 5.71411C37.8514 5.47916 37.4125 4.02972 38.2597 3.18258L41.0881 6.01101C42.5 4.5991 41.7686 2.18338 39.8106 1.79179L39.0262 5.71411ZM34.7724 3.29444C34.9704 4.28409 35.7439 5.05767 36.7336 5.2556L37.5181 1.33328C38.1119 1.45204 38.576 1.91618 38.6948 2.50998L34.7724 3.29444ZM36.0461 6.33904C35.5202 6.3081 35.0098 6.48444 34.6184 6.81943L37.2194 9.8583C36.8334 10.1887 36.33 10.3627 35.8112 10.3321L36.0461 6.33904ZM36.8455 1.76837C35.9983 2.61551 34.5489 2.17666 34.3139 1.00188L38.2363 0.217418C37.8447 -1.74055 35.4289 -2.47197 34.017 -1.06006L36.8455 1.76837Z" fill="#FE9959" mask="url(#path-5-inside-1_815_8033)"/>
</svg>
