<svg width="26" height="20" viewBox="0 0 26 20" xmlns="http://www.w3.org/2000/svg">
    <path d="M4.4707 19.6758H21.7979C23.8496 19.6758 25.042 18.4834 25.042 16.1953V4.3252C25.042 2.03711 23.8389 0.833984 21.5186 0.833984H4.20215C2.15039 0.833984 0.947266 2.02637 0.947266 4.3252V16.1953C0.947266 18.4941 2.15039 19.6758 4.4707 19.6758ZM11.7754 10.6416L3.93359 2.88574C4.09473 2.85352 4.27734 2.83203 4.4707 2.83203H21.5186C21.7334 2.83203 21.916 2.85352 22.0879 2.89648L14.2461 10.6416C13.7949 11.0928 13.4082 11.2754 13.0107 11.2754C12.6133 11.2754 12.2266 11.082 11.7754 10.6416ZM2.92383 4.4541L8.78906 10.2227L2.92383 16.0342V4.4541ZM17.2324 10.2227L23.0762 4.48633V16.0127L17.2324 10.2227ZM4.4707 17.6885C4.2666 17.6885 4.08398 17.667 3.91211 17.624L10.0889 11.501L10.6797 12.0918C11.4531 12.8545 12.2158 13.1768 13.0107 13.1768C13.8057 13.1768 14.5684 12.8545 15.3418 12.0918L15.9326 11.501L22.0986 17.6133C21.9268 17.667 21.7334 17.6885 21.5186 17.6885H4.4707Z" />
</svg>