<svg width="35" height="46" viewBox="0 0 35 46" fill="none" xmlns="http://www.w3.org/2000/svg">
    <rect y="3" width="35" height="43" rx="1" fill="#F2DCA6"/>
    <path d="M0 4C0 3.44772 0.447715 3 1 3H34C34.5523 3 35 3.44772 35 4V11H0V4Z" fill="#E9C46B"/>
    <rect x="5" y="14" width="25" height="2" rx="1" fill="#BA9D56"/>
    <rect x="5" y="19" width="25" height="2" rx="1" fill="#BA9D56"/>
    <rect x="5" y="24" width="25" height="2" rx="1" fill="#BA9D56"/>
    <rect x="5" y="29" width="25" height="2" rx="1" fill="#BA9D56"/>
    <rect x="5" y="34" width="25" height="2" rx="1" fill="#BA9D56"/>
    <rect x="5" y="39" width="25" height="2" rx="1" fill="#BA9D56"/>
    <rect x="1" y="4" width="33" height="1" rx="0.5" fill="#F9EDD3" fill-opacity="0.46"/>
    <rect y="10" width="35" height="1" fill="#BA9D56"/>
    <rect x="4" width="2" height="6" rx="1" fill="#7D9098"/>
    <path d="M9 1C9 0.447715 9.44772 0 10 0V0C10.5523 0 11 0.447715 11 1V5C11 5.55228 10.5523 6 10 6V6C9.44772 6 9 5.55228 9 5V1Z" fill="#7D9098"/>
    <rect x="14" width="2" height="6" rx="1" fill="#7D9098"/>
    <rect x="19" width="2" height="6" rx="1" fill="#7D9098"/>
    <rect x="24" width="2" height="6" rx="1" fill="#7D9098"/>
    <rect x="29" width="2" height="6" rx="1" fill="#7D9098"/>
</svg>
