<svg width="47" height="42" viewBox="0 0 47 42" fill="none" xmlns="http://www.w3.org/2000/svg">
    <rect y="6" width="44" height="31" rx="2" fill="#55B1A5"/>
    <path d="M0 8C0 6.89543 0.895431 6 2 6H42C43.1046 6 44 6.89543 44 8V30H0V8Z" fill="#66C6DB"/>
    <path d="M21.7326 6.58335C21.8955 6.22789 22.2507 6 22.6417 6H42C43.1046 6 44 6.89543 44 8V30H11L21.7326 6.58335Z" fill="#009FC2"/>
    <rect x="17" y="37" width="10" height="3" fill="#2B9D8E"/>
    <rect x="13" y="40" width="18" height="2" rx="1" fill="#55B1A5"/>
    <path fill-rule="evenodd" clip-rule="evenodd" d="M23 0C21.8954 0 21 0.89543 21 2V16C21 17.1046 21.8954 18 23 18H26L26 20.7962C26 21.6554 27.0119 22.1146 27.6585 21.5488L31.7143 18H45C46.1046 18 47 17.1046 47 16V2C47 0.895431 46.1046 0 45 0H23Z" fill="#264653"/>
    <path fill-rule="evenodd" clip-rule="evenodd" d="M34 4C33.4477 4 33 4.44772 33 5V8H30C29.4477 8 29 8.44772 29 9C29 9.55228 29.4477 10 30 10H33V13C33 13.5523 33.4477 14 34 14C34.5523 14 35 13.5523 35 13V10H38C38.5523 10 39 9.55228 39 9C39 8.44772 38.5523 8 38 8H35V5C35 4.44772 34.5523 4 34 4Z" fill="#41B3CC"/>
</svg>

