<svg width="50" height="50" viewBox="0 0 50 50" fill="none" xmlns="http://www.w3.org/2000/svg">
    <circle cx="25" cy="25" r="25" fill="#F9EDD3"/>
    <path d="M15 10H12V22C12 29.1797 17.8203 35 25 35V35C32.1797 35 38 29.1797 38 22V10H35" stroke="#7D9098" stroke-width="2" stroke-linecap="round"/>
    <rect x="14.5" y="7.5" width="1" height="5" rx="0.5" fill="#2B9D8E" stroke="#516B75"/>
    <rect x="34.5" y="7.5" width="1" height="5" rx="0.5" fill="#2B9D8E" stroke="#516B75"/>
    <path d="M14 45H41C42.6569 45 44 43.6569 44 42V42C44 40.3431 42.6569 39 41 39H28" stroke="#7D9098" stroke-width="2"/>
    <path d="M28 39C26.3431 39 25 37.6569 25 36" stroke="#7D9098" stroke-width="2"/>
    <rect x="24" y="34" width="2" height="2" fill="#7D9098"/>
    <circle cx="10" cy="45" r="4" fill="#7D9098" stroke="#7D9098" stroke-width="2"/>
    <circle cx="10" cy="45" r="4.5" stroke="url(#paint0_linear_686_6563)" stroke-opacity="0.32"/>
    <circle cx="10" cy="45" r="3" fill="#D9D9D9"/>
    <defs>
        <linearGradient id="paint0_linear_686_6563" x1="10" y1="40" x2="10" y2="50" gradientUnits="userSpaceOnUse">
            <stop stop-color="#F2F2F2"/>
            <stop offset="1" stop-color="#F2F2F2" stop-opacity="0"/>
        </linearGradient>
    </defs>
</svg>
