<svg width="28" height="24" viewBox="0 0 28 24"  xmlns="http://www.w3.org/2000/svg">
    <path d="M6.69531 23.8252H21.2295C22.8623 23.8252 23.8184 22.8906 23.8184 21.3008V11.2354L25.1289 12.3311C25.3867 12.5459 25.6768 12.7285 26.0098 12.7285C26.6328 12.7285 27.1055 12.3418 27.1055 11.7295C27.1055 11.3643 26.9658 11.0742 26.6865 10.8486L23.8184 8.43164V3.86621C23.8184 3.38281 23.5068 3.07129 23.0234 3.07129H21.5732C21.1006 3.07129 20.7783 3.38281 20.7783 3.86621V5.875L15.5146 1.44922C14.5908 0.675781 13.4307 0.675781 12.4961 1.44922L1.30273 10.8486C1.02344 11.085 0.883789 11.3965 0.883789 11.6973C0.883789 12.2559 1.30273 12.7285 1.99023 12.7285C2.32324 12.7285 2.61328 12.5459 2.87109 12.3311L4.10645 11.2998V21.3008C4.10645 22.8906 5.0625 23.8252 6.69531 23.8252ZM17.083 14.6729C17.083 14.168 16.7607 13.8457 16.2559 13.8457H11.7334C11.2393 13.8457 10.8955 14.168 10.8955 14.6729V21.7197H7.25391C6.57715 21.7197 6.21191 21.3438 6.21191 20.667V9.52734L13.5488 3.38281C13.8389 3.125 14.1719 3.125 14.4619 3.38281L21.7129 9.46289V20.667C21.7129 21.3438 21.3477 21.7197 20.6709 21.7197H17.083V14.6729Z" />
</svg>
