<svg width="27" height="22" viewBox="0 0 27 22" xmlns="http://www.w3.org/2000/svg">
    <path d="M4.27246 21.9326H22.7168C25.0264 21.9326 26.1973 20.7725 26.1973 18.4951V7.97852C26.1973 5.70117 25.0264 4.54102 22.7168 4.54102H19.1289V3.56348C19.1289 1.5332 18.0225 0.566406 16.0029 0.566406H10.9863C9.06348 0.566406 7.87109 1.5332 7.87109 3.56348V4.54102H4.27246C1.98438 4.54102 0.802734 5.70117 0.802734 7.97852V18.4951C0.802734 20.7725 1.98438 21.9326 4.27246 21.9326ZM9.82617 3.56348C9.82617 2.79004 10.2666 2.36035 11.0508 2.36035H15.9385C16.7334 2.36035 17.1738 2.79004 17.1738 3.56348V4.54102H9.82617V3.56348ZM4.3584 19.9023C3.41309 19.9023 2.9082 19.4082 2.9082 18.4307V8.04297C2.9082 7.05469 3.41309 6.57129 4.3584 6.57129H22.6416C23.5869 6.57129 24.0918 7.05469 24.0918 8.04297V18.4307C24.0918 19.4082 23.5869 19.9023 22.6416 19.9023H4.3584ZM8.54785 14.1016C8.54785 14.6924 8.95605 15.1006 9.54688 15.1006H11.6201V17.1631C11.6201 17.7754 12.0176 18.1729 12.6191 18.1729H14.3809C14.9824 18.1729 15.3799 17.7754 15.3799 17.1631V15.1006H17.4531C18.0547 15.1006 18.4521 14.6924 18.4521 14.1016V12.3398C18.4521 11.749 18.0547 11.3408 17.4531 11.3408H15.3799V9.28906C15.3799 8.67676 14.9824 8.2793 14.3809 8.2793H12.6191C12.0176 8.2793 11.6201 8.67676 11.6201 9.28906V11.3408H9.54688C8.94531 11.3408 8.54785 11.749 8.54785 12.3398V14.1016Z"/>
</svg>