<svg width="88" height="88" viewBox="0 0 88 88" fill="none" xmlns="http://www.w3.org/2000/svg">
    <circle cx="44" cy="44" r="42" fill="white" stroke="#95CEC6" stroke-width="4"/>
    <g clip-path="url(#clip0_1274_11556)">
        <path d="M48.28 46.94L53.28 33.94C53.8169 32.5893 54.0809 31.1457 54.0566 29.6925C54.0323 28.2392 53.7202 26.8052 53.1384 25.4733C52.5567 24.1414 51.7167 22.938 50.6671 21.9326C49.6175 20.9272 48.379 20.1398 47.0233 19.6159C45.6676 19.092 44.2215 18.8419 42.7685 18.8802C41.3156 18.9184 39.8846 19.2443 38.5584 19.8388C37.2321 20.4334 36.0368 21.2849 35.0416 22.3441C34.0463 23.4033 33.2709 24.6493 32.76 26.01L27.76 39.01L48.28 46.94Z" fill="#2B9C8E"/>
        <path d="M46.18 21.85C45.0776 21.4238 43.902 21.2189 42.7204 21.2471C41.5387 21.2752 40.3743 21.5359 39.2934 22.0141C38.2125 22.4923 37.2364 23.1788 36.4208 24.0343C35.6052 24.8897 34.9661 25.8975 34.54 27L32.02 33.54" stroke="#7FC3BA" stroke-width="2" stroke-miterlimit="10" stroke-linecap="round"/>
        <path d="M27.7601 39.01L22.7601 52.01C21.7072 54.7311 21.7784 57.7591 22.958 60.4277C24.1376 63.0963 26.329 65.1871 29.0501 66.24C31.7712 67.2929 34.7992 67.2217 37.4678 66.0421C40.1364 64.8625 42.2272 62.6711 43.2801 59.95L48.2801 46.95L27.7601 39.01Z" fill="url(#paint0_linear_1274_11556)"/>
        <path d="M56.52 50.45C62.0429 50.45 66.52 45.9728 66.52 40.45C66.52 34.9271 62.0429 30.45 56.52 30.45C50.9972 30.45 46.52 34.9271 46.52 40.45C46.52 45.9728 50.9972 50.45 56.52 50.45Z" fill="#FAB380"/>
        <path d="M56.52 50.45C62.0429 50.45 66.52 45.9728 66.52 40.45C66.52 34.9271 62.0429 30.45 56.52 30.45C50.9972 30.45 46.52 34.9271 46.52 40.45C46.52 45.9728 50.9972 50.45 56.52 50.45Z" fill="url(#paint1_linear_1274_11556)"/>
        <path d="M48.52 40.45C48.52 38.3282 49.3629 36.2934 50.8632 34.7931C52.3635 33.2928 54.3983 32.45 56.52 32.45" stroke="#FBC49C" stroke-width="2" stroke-linecap="round" stroke-linejoin="round"/>
        <path opacity="0.05" d="M47.52 68.1C54.6997 68.1 60.52 62.2797 60.52 55.1C60.52 47.9203 54.6997 42.1 47.52 42.1C40.3403 42.1 34.52 47.9203 34.52 55.1C34.52 62.2797 40.3403 68.1 47.52 68.1Z" fill="#231F20"/>
        <path d="M49.4199 69.24C56.5996 69.24 62.4199 63.4197 62.4199 56.24C62.4199 49.0603 56.5996 43.24 49.4199 43.24C42.2402 43.24 36.4199 49.0603 36.4199 56.24C36.4199 63.4197 42.2402 69.24 49.4199 69.24Z" fill="url(#paint2_linear_1274_11556)"/>
        <path d="M36.3799 56.24C36.3799 56.57 36.3799 56.9 36.4299 57.24H62.3799C62.3799 56.91 62.3799 56.58 62.3799 56.24H36.3799Z" fill="white"/>
        <path d="M36.3799 56.23H62.3799C62.3799 55.89 62.3799 55.56 62.3799 55.23H36.4799C36.4399 55.56 36.3799 55.89 36.3799 56.23Z" fill="#C4C4C4"/>
        <path d="M39.28 52.96C39.1462 52.9575 39.014 52.9304 38.89 52.88C38.6462 52.7764 38.4534 52.5803 38.354 52.3347C38.2546 52.0891 38.2568 51.8141 38.36 51.57C38.6628 50.8682 39.0346 50.1982 39.47 49.57C40.3261 48.2872 41.4272 47.1861 42.71 46.33C43.3392 45.8962 44.009 45.5245 44.71 45.22C45.4363 44.9163 46.1896 44.6819 46.96 44.52C47.7567 44.3596 48.5674 44.2792 49.38 44.28C49.6452 44.28 49.8996 44.3854 50.0871 44.5729C50.2747 44.7604 50.38 45.0148 50.38 45.28C50.38 45.5453 50.2747 45.7996 50.0871 45.9871C49.8996 46.1747 49.6452 46.28 49.38 46.28C48.7085 46.2825 48.0387 46.3494 47.38 46.48C46.7379 46.6113 46.1112 46.8091 45.51 47.07C43.108 48.0811 41.1956 49.9899 40.18 52.39C40.099 52.5602 39.9715 52.704 39.8122 52.8048C39.653 52.9057 39.4685 52.9595 39.28 52.96Z" fill="white"/>
    </g>
    <defs>
        <linearGradient id="paint0_linear_1274_11556" x1="29.0799" y1="66.2137" x2="38.0595" y2="42.9785" gradientUnits="userSpaceOnUse">
            <stop stop-color="#D4D4D4"/>
            <stop offset="1" stop-color="white"/>
        </linearGradient>
        <linearGradient id="paint1_linear_1274_11556" x1="56.52" y1="30.45" x2="56.52" y2="50.45" gradientUnits="userSpaceOnUse">
            <stop stop-color="#F68E44" stop-opacity="0"/>
            <stop offset="1" stop-color="#F68E44"/>
        </linearGradient>
        <linearGradient id="paint2_linear_1274_11556" x1="49.4199" y1="43.23" x2="49.4199" y2="69.23" gradientUnits="userSpaceOnUse">
            <stop stop-color="white"/>
            <stop offset="1" stop-color="#E0E0E0"/>
        </linearGradient>
        <clipPath id="clip0_1274_11556">
            <rect width="44.52" height="50.24" fill="white" transform="translate(22 19)"/>
        </clipPath>
    </defs>
</svg>
