<svg width="23" height="23" viewBox="0 0 23 23" xmlns="http://www.w3.org/2000/svg">
    <path d="M11.5 22.3408C17.5693 22.3408 22.5967 17.3242 22.5967 11.2441C22.5967 5.1748 17.5693 0.147461 11.4893 0.147461C5.41992 0.147461 0.40332 5.1748 0.40332 11.2441C0.40332 17.3242 5.43066 22.3408 11.5 22.3408ZM11.5 20.1602C6.55859 20.1602 2.59473 16.1855 2.59473 11.2441C2.59473 6.30273 6.54785 2.33887 11.4893 2.33887C16.4307 2.33887 20.416 6.30273 20.416 11.2441C20.416 16.1855 16.4414 20.1602 11.5 20.1602ZM11.4893 10.8682C13.0039 10.8789 14.2178 9.60059 14.2178 7.89258C14.2178 6.30273 13.0039 4.98145 11.4893 4.98145C9.98535 4.98145 8.76074 6.30273 8.76074 7.89258C8.76074 9.60059 9.98535 10.8682 11.4893 10.8682ZM6.74121 16.6152H16.248C16.71 16.6152 16.9463 16.293 16.9463 15.874C16.9463 14.7139 15.2168 11.7168 11.4893 11.7168C7.76172 11.7168 6.04297 14.7139 6.04297 15.874C6.04297 16.293 6.26855 16.6152 6.74121 16.6152Z" />
</svg>