<svg width="355" height="46" viewBox="0 0 355 46" fill="none" xmlns="http://www.w3.org/2000/svg">
    <rect y="8" width="44" height="31" rx="2" fill="#55B1A5"/>
    <path d="M0 10C0 8.89543 0.895431 8 2 8H42C43.1046 8 44 8.89543 44 10V32H0V10Z" fill="#66C6DB"/>
    <path d="M21.7326 8.58335C21.8955 8.22789 22.2507 8 22.6417 8H42C43.1046 8 44 8.89543 44 10V32H11L21.7326 8.58335Z" fill="#009FC2"/>
    <rect x="17" y="39" width="10" height="3" fill="#2B9D8E"/>
    <rect x="13" y="42" width="18" height="2" rx="1" fill="#55B1A5"/>
    <path fill-rule="evenodd" clip-rule="evenodd" d="M23 2C21.8954 2 21 2.89543 21 4V18C21 19.1046 21.8954 20 23 20H26L26 22.7962C26 23.6554 27.0119 24.1146 27.6585 23.5488L31.7143 20H45C46.1046 20 47 19.1046 47 18V4C47 2.89543 46.1046 2 45 2H23Z" fill="#264653"/>
    <path fill-rule="evenodd" clip-rule="evenodd" d="M34 6C33.4477 6 33 6.44772 33 7V10H30C29.4477 10 29 10.4477 29 11C29 11.5523 29.4477 12 30 12H33V15C33 15.5523 33.4477 16 34 16C34.5523 16 35 15.5523 35 15V12H38C38.5523 12 39 11.5523 39 11C39 10.4477 38.5523 10 38 10H35V7C35 6.44772 34.5523 6 34 6Z" fill="#41B3CC"/>
    <rect x="17" y="39" width="10" height="1" fill="#264653" fill-opacity="0.2"/>
    <path d="M89 14C89 11.2386 91.2386 9 94 9H110C112.761 9 115 11.2386 115 14V42C115 43.1046 114.105 44 113 44H91C89.8954 44 89 43.1046 89 42V14Z" fill="#80C4BB"/>
    <mask id="mask0_815_7946" style="mask-type:alpha" maskUnits="userSpaceOnUse" x="89" y="9" width="26" height="35">
        <path d="M89 14C89 11.2386 91.2386 9 94 9H110C112.761 9 115 11.2386 115 14V42C115 43.1046 114.105 44 113 44H91C89.8954 44 89 43.1046 89 42V14Z" fill="#2B9D8E"/>
    </mask>
    <g mask="url(#mask0_815_7946)">
        <path d="M109 0H135L115 44H89L109 0Z" fill="#40A799"/>
    </g>
    <rect x="91" y="18" width="22" height="16" rx="2" fill="white"/>
    <rect x="101" y="22" width="2" height="8" rx="1" fill="#41B3CC"/>
    <rect x="98" y="27" width="2" height="8" rx="1" transform="rotate(-90 98 27)" fill="#41B3CC"/>
    <rect x="93" width="18" height="7" rx="1" fill="#66C6DB"/>
    <mask id="mask1_815_7946" style="mask-type:alpha" maskUnits="userSpaceOnUse" x="93" y="0" width="18" height="7">
        <rect x="93" width="18" height="7" rx="1" fill="#41B3CC"/>
    </mask>
    <g mask="url(#mask1_815_7946)">
        <rect x="94" y="1" width="1" height="5" fill="white" fill-opacity="0.6"/>
        <path d="M109 0H135L115 44H89L109 0Z" fill="#009FC2"/>
    </g>
    <rect x="95" y="7" width="14" height="4" fill="#80C4BB"/>
    <mask id="mask2_815_7946" style="mask-type:alpha" maskUnits="userSpaceOnUse" x="95" y="7" width="14" height="4">
        <rect x="95" y="7" width="14" height="4" fill="#2B9D8E"/>
    </mask>
    <g mask="url(#mask2_815_7946)">
        <path d="M109 0H135L115 44H89L109 0Z" fill="#40A799"/>
    </g>
    <rect x="95" y="7" width="14" height="1" fill="#2B9D8E"/>
    <path d="M72 18H92V44C92 45.1046 91.1046 46 90 46H74C72.8954 46 72 45.1046 72 44V18Z" fill="#2B9D8E"/>
    <path d="M72 18H92V44C92 45.1046 91.1046 46 90 46H74C72.8954 46 72 45.1046 72 44V18Z" fill="#80C4BB"/>
    <mask id="mask3_815_7946" style="mask-type:alpha" maskUnits="userSpaceOnUse" x="72" y="18" width="20" height="28">
        <path d="M72 18H92V44C92 45.1046 91.1046 46 90 46H74C72.8954 46 72 45.1046 72 44V18Z" fill="#2B9D8E"/>
        <path d="M72 18H92V44C92 45.1046 91.1046 46 90 46H74C72.8954 46 72 45.1046 72 44V18Z" fill="#2B9D8E"/>
    </mask>
    <g mask="url(#mask3_815_7946)">
        <path d="M89 11L109 11L92 46H72L89 11Z" fill="#2B9D8E"/>
        <path d="M89 11L109 11L92 46H72L89 11Z" fill="#40A799"/>
    </g>
    <rect x="72" y="20" width="20" height="1" fill="#2B9D8E"/>
    <rect x="70" y="11" width="24" height="9" rx="1" fill="#66C6DB"/>
    <mask id="mask4_815_7946" style="mask-type:alpha" maskUnits="userSpaceOnUse" x="70" y="11" width="24" height="9">
        <rect x="70" y="11" width="24" height="9" rx="1" fill="#66C6DB"/>
    </mask>
    <g mask="url(#mask4_815_7946)">
        <path d="M89 11L109 11L92 46H72L89 11Z" fill="#2B9D8E"/>
        <path d="M89 11L109 11L92 46H72L89 11Z" fill="#009FC2"/>
    </g>
    <rect x="71" y="12" width="1" height="7" fill="white" fill-opacity="0.6"/>
    <rect x="74" y="24" width="16" height="16" rx="2" fill="white"/>
    <rect x="81" y="28" width="2" height="8" rx="1" fill="#41B3CC"/>
    <rect x="78" y="33" width="2" height="8" rx="1" transform="rotate(-90 78 33)" fill="#41B3CC"/>
    <rect x="138" y="3" width="35" height="43" rx="1" fill="#F2DCA6"/>
    <path d="M138 4C138 3.44772 138.448 3 139 3H172C172.552 3 173 3.44772 173 4V11H138V4Z" fill="#E9C46B"/>
    <rect x="143" y="14" width="25" height="2" rx="1" fill="#BA9D56"/>
    <rect x="143" y="19" width="25" height="2" rx="1" fill="#BA9D56"/>
    <rect x="143" y="24" width="25" height="2" rx="1" fill="#BA9D56"/>
    <rect x="143" y="29" width="25" height="2" rx="1" fill="#BA9D56"/>
    <rect x="143" y="34" width="25" height="2" rx="1" fill="#BA9D56"/>
    <rect x="143" y="39" width="25" height="2" rx="1" fill="#BA9D56"/>
    <rect x="139" y="4" width="33" height="1" rx="0.5" fill="#F9EDD3" fill-opacity="0.46"/>
    <rect x="138" y="10" width="35" height="1" fill="#BA9D56"/>
    <rect x="142" width="2" height="6" rx="1" fill="#7D9098"/>
    <path d="M147 1C147 0.447715 147.448 0 148 0V0C148.552 0 149 0.447715 149 1V5C149 5.55228 148.552 6 148 6V6C147.448 6 147 5.55228 147 5V1Z" fill="#7D9098"/>
    <rect x="152" width="2" height="6" rx="1" fill="#7D9098"/>
    <rect x="157" width="2" height="6" rx="1" fill="#7D9098"/>
    <rect x="162" width="2" height="6" rx="1" fill="#7D9098"/>
    <rect x="167" width="2" height="6" rx="1" fill="#7D9098"/>
    <mask id="path-50-inside-1_815_7946" fill="white">
        <rect x="196" y="4" width="36" height="42" rx="1"/>
    </mask>
    <rect x="196" y="4" width="36" height="42" rx="1" fill="#FFF9EB" stroke="#E9C46B" stroke-width="4" mask="url(#path-50-inside-1_815_7946)"/>
    <path fill-rule="evenodd" clip-rule="evenodd" d="M210 0C209.448 0 209 0.447715 209 1V2H206C205.448 2 205 2.44772 205 3V7C205 7.55228 205.448 8 206 8H222C222.552 8 223 7.55228 223 7V3C223 2.44772 222.552 2 222 2H219V1C219 0.447715 218.552 0 218 0H210Z" fill="#7D9098"/>
    <rect x="215" y="11" width="11" height="2" rx="1" fill="#93A2A9"/>
    <rect x="202" y="11" width="11" height="2" rx="1" fill="#93A2A9"/>
    <rect x="215" y="15" width="11" height="2" rx="1" fill="#93A2A9"/>
    <rect x="202" y="15" width="11" height="2" rx="1" fill="#93A2A9"/>
    <rect x="215" y="19" width="11" height="2" rx="1" fill="#93A2A9"/>
    <rect x="202" y="19" width="11" height="2" rx="1" fill="#93A2A9"/>
    <rect x="202" y="31" width="24" height="2" rx="1" fill="#93A2A9"/>
    <rect x="202" y="35" width="24" height="2" rx="1" fill="#93A2A9"/>
    <rect x="202" y="39" width="24" height="2" rx="1" fill="#93A2A9"/>
    <path d="M203 28L207.194 24.6445C207.635 24.2919 208.28 24.3738 208.619 24.8254L210.419 27.2258C210.743 27.6574 211.351 27.7544 211.793 27.445L215.374 24.9384C215.743 24.6796 216.241 24.7005 216.587 24.9894L218.498 26.5813C218.803 26.8357 219.23 26.8852 219.585 26.7075L225 24" stroke="#FE7F2F" stroke-width="2" stroke-linejoin="round"/>
    <rect x="206" y="3" width="16" height="1" rx="0.5" fill="#93A2A9"/>
    <circle cx="273.5" cy="24.5" r="18.5" fill="#516B75"/>
    <circle cx="273.5" cy="24.5" r="12.5" fill="#B3CD9B"/>
    <circle cx="273.5" cy="24.5" r="6.5" fill="#80C4BB"/>
    <path d="M272.707 25.3209C272.317 24.9304 272.317 24.2972 272.707 23.9067L286.849 9.76459C287.24 9.37406 287.873 9.37406 288.263 9.76459V9.76459C288.654 10.1551 288.654 10.7883 288.263 11.1788L274.121 25.3209C273.731 25.7115 273.098 25.7115 272.707 25.3209V25.3209Z" fill="#264653"/>
    <mask id="path-67-inside-2_815_7946" fill="white">
        <path fill-rule="evenodd" clip-rule="evenodd" d="M286.849 6.93617L290.431 3.35415C290.714 3.07177 291.197 3.21806 291.275 3.60965L291.734 5.90221C291.773 6.10014 291.928 6.25485 292.126 6.29444L294.418 6.75295C294.81 6.83127 294.956 7.31441 294.674 7.5968L291.092 11.1788L290.939 11.3316C290.936 11.3344 290.933 11.3358 290.929 11.3356V11.3356C290.925 11.3354 290.922 11.3366 290.919 11.3389C289.74 12.3477 287.965 12.2944 286.849 11.1788C285.734 10.0633 285.68 8.28777 286.689 7.1091C286.691 7.10642 286.693 7.10293 286.692 7.09941V7.09941C286.692 7.09553 286.694 7.09174 286.696 7.08899L286.849 6.93617Z"/>
    </mask>
    <path fill-rule="evenodd" clip-rule="evenodd" d="M286.849 6.93617L290.431 3.35415C290.714 3.07177 291.197 3.21806 291.275 3.60965L291.734 5.90221C291.773 6.10014 291.928 6.25485 292.126 6.29444L294.418 6.75295C294.81 6.83127 294.956 7.31441 294.674 7.5968L291.092 11.1788L290.939 11.3316C290.936 11.3344 290.933 11.3358 290.929 11.3356V11.3356C290.925 11.3354 290.922 11.3366 290.919 11.3389C289.74 12.3477 287.965 12.2944 286.849 11.1788C285.734 10.0633 285.68 8.28777 286.689 7.1091C286.691 7.10642 286.693 7.10293 286.692 7.09941V7.09941C286.692 7.09553 286.694 7.09174 286.696 7.08899L286.849 6.93617Z" fill="#FE9959"/>
    <path d="M286.849 6.93617L288.263 8.35039L286.849 6.93617ZM291.092 11.1788L292.506 12.593L291.092 11.1788ZM286.689 7.1091L285.17 5.80859L286.689 7.1091ZM286.692 7.09941L288.689 6.98197L286.692 7.09941ZM290.939 11.3316L289.525 9.91742L290.939 11.3316ZM294.418 6.75295L294.811 4.79179L294.418 6.75295ZM291.734 5.90221L293.695 5.50998L291.734 5.90221ZM292.126 6.29444L292.518 4.33328L292.126 6.29444ZM290.929 11.3356L290.811 13.3321L290.929 11.3356ZM290.919 11.3389L292.219 12.8583L290.919 11.3389ZM288.263 8.35039L291.845 4.76837L289.017 1.93994L285.435 5.52196L288.263 8.35039ZM289.314 4.00188L289.772 6.29444L293.695 5.50998L293.236 3.21742L289.314 4.00188ZM291.734 8.2556L294.026 8.71411L294.811 4.79179L292.518 4.33328L291.734 8.2556ZM293.26 6.18258L289.678 9.7646L292.506 12.593L296.088 9.01101L293.26 6.18258ZM289.678 9.7646L289.525 9.91742L292.353 12.7458L292.506 12.593L289.678 9.7646ZM289.618 9.81943C289.227 10.1544 288.635 10.1358 288.263 9.7646L285.435 12.593C287.295 14.4529 290.253 14.541 292.219 12.8583L289.618 9.81943ZM288.263 9.7646C287.892 9.39342 287.874 8.80094 288.209 8.40961L285.17 5.80859C283.487 7.7746 283.575 10.7331 285.435 12.593L288.263 9.7646ZM288.111 8.5032L288.263 8.35039L285.435 5.52196L285.282 5.67477L288.111 8.5032ZM288.689 6.98197C288.722 7.54838 288.512 8.102 288.111 8.5032L285.282 5.67477C284.875 6.08148 284.662 6.64268 284.696 7.21685L288.689 6.98197ZM288.209 8.40961C288.544 8.01819 288.72 7.50781 288.689 6.98197L284.696 7.21685C284.665 6.69805 284.839 6.19464 285.17 5.80859L288.209 8.40961ZM289.525 9.91742C289.926 9.51621 290.48 9.30572 291.046 9.33904L290.811 13.3321C291.385 13.3659 291.947 13.1525 292.353 12.7458L289.525 9.91742ZM294.026 8.71411C292.851 8.47916 292.413 7.02972 293.26 6.18258L296.088 9.01101C297.5 7.5991 296.769 5.18338 294.811 4.79179L294.026 8.71411ZM289.772 6.29444C289.97 7.28409 290.744 8.05767 291.734 8.2556L292.518 4.33328C293.112 4.45204 293.576 4.91618 293.695 5.50998L289.772 6.29444ZM291.046 9.33904C290.52 9.3081 290.01 9.48444 289.618 9.81943L292.219 12.8583C291.833 13.1887 291.33 13.3627 290.811 13.3321L291.046 9.33904ZM291.845 4.76837C290.998 5.61551 289.549 5.17666 289.314 4.00188L293.236 3.21742C292.845 1.25945 290.429 0.528034 289.017 1.93994L291.845 4.76837Z" fill="#FE9959" mask="url(#path-67-inside-2_815_7946)"/>
    <path d="M325 4H322V16C322 23.1797 327.82 29 335 29V29C342.18 29 348 23.1797 348 16V4H345" stroke="#7D9098" stroke-width="2" stroke-linecap="round"/>
    <rect x="324.5" y="1.5" width="1" height="5" rx="0.5" fill="#2B9D8E" stroke="#516B75"/>
    <rect x="344.5" y="1.5" width="1" height="5" rx="0.5" fill="#2B9D8E" stroke="#516B75"/>
    <path d="M324 39H351C352.657 39 354 37.6569 354 36V36C354 34.3431 352.657 33 351 33H338" stroke="#7D9098" stroke-width="2"/>
    <path d="M338 33C336.343 33 335 31.6569 335 30" stroke="#7D9098" stroke-width="2"/>
    <rect x="334" y="28" width="2" height="2" fill="#7D9098"/>
    <circle cx="320" cy="39" r="4" fill="#7D9098" stroke="#7D9098" stroke-width="2"/>
    <circle cx="320" cy="39" r="4.5" stroke="url(#paint0_linear_815_7946)" stroke-opacity="0.32"/>
    <circle cx="320" cy="39" r="3" fill="#D9D9D9"/>
    <defs>
        <linearGradient id="paint0_linear_815_7946" x1="320" y1="34" x2="320" y2="44" gradientUnits="userSpaceOnUse">
            <stop stop-color="#F2F2F2"/>
            <stop offset="1" stop-color="#F2F2F2" stop-opacity="0"/>
        </linearGradient>
    </defs>
</svg>
