<svg width="14" height="13" viewBox="0 0 14 13" xmlns="http://www.w3.org/2000/svg">
    <path d="M0 10.5499C0 11.7262 0.642886 12.3693 1.86775 12.3693H11.3847C12.6228 12.3693 13.2593 11.7375 13.2593 10.5181V1.85586C13.2593 0.636488 12.6228 0 11.3847 0H4.48217C3.24771 0 2.60653 0.636488 2.60653 1.85586V4.41406H1.34052C0.497509 4.41406 0 4.88347 0 5.68793V10.5499ZM1.11959 10.4954V5.89186C1.11959 5.66599 1.25663 5.53364 1.48247 5.53364H2.60653V10.4954C2.60653 10.9399 2.28572 11.2497 1.86775 11.2497C1.4451 11.2497 1.11959 10.9258 1.11959 10.4954ZM3.56063 11.2497C3.66784 11.0359 3.72612 10.7913 3.72612 10.502V1.95461C3.72612 1.40349 4.01528 1.11959 4.55177 1.11959H11.3151C11.8516 1.11959 12.1397 1.40349 12.1397 1.95461V10.4194C12.1397 10.9705 11.8516 11.2497 11.3151 11.2497H3.56063ZM5.17898 3.55915H10.6962C10.9127 3.55915 11.0804 3.3868 11.0804 3.17136C11.0804 2.96061 10.9137 2.79865 10.6962 2.79865H5.17898C4.95783 2.79865 4.79121 2.96061 4.79121 3.17136C4.79121 3.3868 4.95886 3.55915 5.17898 3.55915ZM5.17898 5.53364H10.6962C10.9137 5.53364 11.0804 5.36701 11.0804 5.15625C11.0804 4.94081 10.9127 4.77316 10.6962 4.77316H5.17898C4.95886 4.77316 4.79121 4.94081 4.79121 5.15625C4.79121 5.36701 4.95783 5.53364 5.17898 5.53364ZM5.50277 9.50941H6.92733C7.36987 9.50941 7.63992 9.23935 7.63992 8.79681V7.46861C7.63992 7.02344 7.36987 6.75339 6.92733 6.75339H5.50277C5.05556 6.75339 4.7855 7.02344 4.7855 7.46861V8.79681C4.7855 9.23935 5.05556 9.50941 5.50277 9.50941ZM8.65418 7.51284H10.6915C10.9127 7.51284 11.0736 7.3509 11.0736 7.14116C11.0736 6.92001 10.9127 6.75339 10.6915 6.75339H8.65418C8.43196 6.75339 8.27001 6.92001 8.27001 7.14116C8.27001 7.3509 8.43298 7.51284 8.65418 7.51284ZM8.65418 9.50941H10.6915C10.9127 9.50941 11.0736 9.34746 11.0736 9.1367C11.0736 8.92126 10.9127 8.74892 10.6915 8.74892H8.65418C8.43298 8.74892 8.27001 8.92126 8.27001 9.1367C8.27001 9.34746 8.43196 9.50941 8.65418 9.50941Z"/>
</svg>
